TITLE ""
FILE "Disc4Track44.mp3" MP3
  TRACK 01 AUDIO
    TITLE "Disc4Track44_01"
    INDEX 01 00:00:00
  TRACK 02 AUDIO
    TITLE "Disc4Track44_02"
    INDEX 01 00:01:18
  TRACK 03 AUDIO
    TITLE "Disc4Track44_03"
    INDEX 01 00:02:15
  TRACK 04 AUDIO
    TITLE "Disc4Track44_04"
    INDEX 01 00:03:44
  TRACK 05 AUDIO
    TITLE "Disc4Track44_05"
    INDEX 01 00:04:06
  TRACK 06 AUDIO
    TITLE "Disc4Track44_06"
    INDEX 01 00:05:29
  TRACK 07 AUDIO
    TITLE "Disc4Track44_07"
    INDEX 01 00:07:32
  TRACK 08 AUDIO
    TITLE "Disc4Track44_08"
    INDEX 01 00:08:53
  TRACK 09 AUDIO
    TITLE "Disc4Track44_09"
    INDEX 01 00:14:46
  TRACK 10 AUDIO
    TITLE "Disc4Track44_10"
    INDEX 01 00:15:02
  TRACK 11 AUDIO
    TITLE "Disc4Track44_11"
    INDEX 01 00:16:07
  TRACK 12 AUDIO
    TITLE "Disc4Track44_12"
    INDEX 01 00:17:01
  TRACK 13 AUDIO
    TITLE "Disc4Track44_13"
    INDEX 01 00:18:04
  TRACK 14 AUDIO
    TITLE "Disc4Track44_14"
    INDEX 01 00:19:66
  TRACK 15 AUDIO
    TITLE "Disc4Track44_15"
    INDEX 01 00:20:23
  TRACK 16 AUDIO
    TITLE "Disc4Track44_16"
    INDEX 01 00:21:46
  TRACK 17 AUDIO
    TITLE "Disc4Track44_17"
    INDEX 01 00:23:45
  TRACK 18 AUDIO
    TITLE "Disc4Track44_18"
    INDEX 01 00:24:64
  TRACK 19 AUDIO
    TITLE "Disc4Track44_19"
    INDEX 01 00:27:64
  TRACK 20 AUDIO
    TITLE "Disc4Track44_20"
    INDEX 01 00:28:18
  TRACK 21 AUDIO
    TITLE "Disc4Track44_21"
    INDEX 01 00:29:39
  TRACK 22 AUDIO
    TITLE "Disc4Track44_22"
    INDEX 01 00:30:31
  TRACK 23 AUDIO
    TITLE "Disc4Track44_23"
    INDEX 01 00:31:52
  TRACK 24 AUDIO
    TITLE "Disc4Track44_24"
    INDEX 01 00:33:43
  TRACK 25 AUDIO
    TITLE "Disc4Track44_25"
    INDEX 01 00:34:01
  TRACK 26 AUDIO
    TITLE "Disc4Track44_26"
    INDEX 01 00:35:20
  TRACK 27 AUDIO
    TITLE "Disc4Track44_27"
    INDEX 01 00:36:41
  TRACK 28 AUDIO
    TITLE "Disc4Track44_28"
    INDEX 01 00:37:58
  TRACK 29 AUDIO
    TITLE "Disc4Track44_29"
    INDEX 01 00:40:73
  TRACK 30 AUDIO
    TITLE "Disc4Track44_30"
    INDEX 01 00:41:27
  TRACK 31 AUDIO
    TITLE "Disc4Track44_31"
    INDEX 01 00:42:40
  TRACK 32 AUDIO
    TITLE "Disc4Track44_32"
    INDEX 01 00:44:39
  TRACK 33 AUDIO
    TITLE "Disc4Track44_33"
    INDEX 01 00:45:52
  TRACK 34 AUDIO
    TITLE "Disc4Track44_34"
    INDEX 01 00:46:18
  TRACK 35 AUDIO
    TITLE "Disc4Track44_35"
    INDEX 01 00:47:41
  TRACK 36 AUDIO
    TITLE "Disc4Track44_36"
    INDEX 01 00:48:33
  TRACK 37 AUDIO
    TITLE "Disc4Track44_37"
    INDEX 01 00:49:52
  TRACK 38 AUDIO
    TITLE "Disc4Track44_38"
    INDEX 01 00:52:13
  TRACK 39 AUDIO
    TITLE "Disc4Track44_39"
    INDEX 01 00:52:44
  TRACK 40 AUDIO
    TITLE "Disc4Track44_40"
    INDEX 01 00:54:10
  TRACK 41 AUDIO
    TITLE "Disc4Track44_41"
    INDEX 01 00:55:41
  TRACK 42 AUDIO
    TITLE "Disc4Track44_42"
    INDEX 01 00:57:04
  TRACK 43 AUDIO
    TITLE "Disc4Track44_43"
    INDEX 01 01:00:34
